<?xml version="1.0" encoding="UTF-8"?>
<!-- Generated by Pixelmator Pro 3.4.1 -->
<svg width="96" height="96" viewBox="0 0 96 96" xmlns="http://www.w3.org/2000/svg">
    <g id="layer3">
        <g id="path3786">
            <linearGradient id="linearGradient1" x1="31.8761" y1="91.8667" x2="31.8761" y2="6.7585" gradientUnits="userSpaceOnUse">
                <stop offset="1e-05" stop-color="#000000" stop-opacity="0.08"/>
                <stop offset="1" stop-color="#000000" stop-opacity="0.05"/>
            </linearGradient>
            <path id="Path" fill="url(#linearGradient1)" stroke="none" d="M 12 95.030998 C 6.489 95.030998 1.969 90.511002 1.969 85 L 1.969 14 C 1.969 8.488998 6.489 3.969002 12 3.969002 L 84 3.969002 C 89.511002 3.969002 94.030998 8.488998 94.030998 14 L 94.030998 85 C 94.030998 90.511002 89.511002 95.030998 84 95.030998 L 12 95.030998 Z"/>
        </g>
        <g id="path3778">
            <linearGradient id="linearGradient2" x1="31.8761" y1="91.8667" x2="31.8761" y2="6.7585" gradientUnits="userSpaceOnUse">
                <stop offset="1e-05" stop-color="#000000" stop-opacity="0.1"/>
                <stop offset="1" stop-color="#000000" stop-opacity="0.06"/>
            </linearGradient>
            <path id="path1" fill="url(#linearGradient2)" stroke="none" d="M 12 94.030998 C 7.028 94.030998 2.969 89.972 2.969 85 L 2.969 14 C 2.969 9.028 7.028 4.969002 12 4.969002 L 84 4.969002 C 88.972 4.969002 93.030998 9.028 93.030998 14 L 93.030998 85 C 93.030998 89.972 88.972 94.030998 84 94.030998 L 12 94.030998 Z"/>
        </g>
        <g id="path3770">
            <linearGradient id="linearGradient3" x1="31.8761" y1="91.8667" x2="31.8761" y2="6.7585" gradientUnits="userSpaceOnUse">
                <stop offset="1e-05" stop-color="#000000" stop-opacity="0.2"/>
                <stop offset="1" stop-color="#000000" stop-opacity="0.12"/>
            </linearGradient>
            <path id="path2" fill="url(#linearGradient3)" stroke="none" d="M 12 93 C 7.591 93 4 89.408997 4 85 L 4 14 C 4 9.591003 7.591 6 12 6 L 84 6 C 88.408997 6 92 9.591003 92 14 L 92 85 C 92 89.408997 88.408997 93 84 93 L 12 93 Z"/>
        </g>
        <g id="rect3723">
            <linearGradient id="linearGradient4" x1="31.8761" y1="91.8667" x2="31.8761" y2="6.7585" gradientUnits="userSpaceOnUse">
                <stop offset="1e-05" stop-color="#000000" stop-opacity="0.3"/>
                <stop offset="1" stop-color="#000000" stop-opacity="0.18"/>
            </linearGradient>
            <path id="path3" fill="url(#linearGradient4)" fill-rule="evenodd" stroke="none" d="M 91 85 C 91 88.862999 87.862999 92 84 92 L 12 92 C 8.137 92 5 88.862999 5 85 L 5 14 C 5 10.137001 8.137 7 12 7 L 84 7 C 87.862999 7 91 10.137001 91 14 L 91 85 Z"/>
        </g>
        <g id="rect3716">
            <linearGradient id="linearGradient5" x1="32.251" y1="90.8683" x2="32.251" y2="6.7614" gradientUnits="userSpaceOnUse">
                <stop offset="1e-05" stop-color="#000000" stop-opacity="0.45"/>
                <stop offset="1" stop-color="#000000" stop-opacity="0.26"/>
            </linearGradient>
            <path id="path4" fill="url(#linearGradient5)" fill-rule="evenodd" stroke="none" d="M 90 85 C 90 88.310997 87.310997 91 84 91 L 12 91 C 8.689 91 6 88.310997 6 85 L 6 13 C 6 9.689003 8.689 7 12 7 L 84 7 C 87.310997 7 90 9.689003 90 13 L 90 85 Z"/>
        </g>
    </g>
    <g id="layer1">
        <path id="Shape" fill="#a450a7" stroke="none" d="M 16 37.721931 C 16.001951 46.676464 22.535263 54.382763 31.604626 56.128197 C 31.855124 53.439606 32.567593 50.810421 33.712624 48.349155 C 30.318125 47.2384 28.136499 44.71669 27.625 41.136753 L 25.6875 41.136753 L 25.6875 39.538166 L 27.49325 39.538166 L 27.49325 37.909557 C 27.49325 37.736938 27.49325 37.56057 27.508751 37.402962 L 25.6875 37.402962 L 25.6875 35.800625 L 27.667625 35.800625 C 28.539501 31.117439 32.325375 28.340553 38.013874 28.340553 C 39.238377 28.340553 40.300125 28.456879 41.1875 28.659515 L 41.1875 31.410141 C 40.151089 31.186836 39.09095 31.083542 38.029373 31.102432 C 34.46825 31.102432 32.069626 32.851116 31.310125 35.800625 L 38.738499 35.800625 L 38.738499 37.402962 L 31.066 37.402962 C 31.054375 37.575584 31.054375 37.76696 31.054375 37.95459 L 31.054375 39.538166 L 38.738499 39.538166 L 38.738499 41.140503 L 31.22875 41.140503 C 31.685999 43.399544 33.042248 45.005634 35.123123 45.752388 C 39.260975 39.115963 46.410091 34.779556 54.381874 34.070698 C 52.413239 24.630013 43.385612 18.164192 33.487728 19.105774 C 23.589844 20.04734 16.03401 28.090736 16 37.721931 Z M 78 58.360966 C 78 69.75959 68.458069 79 56.6875 79 C 44.916931 79 35.375 69.75959 35.375 58.360966 C 35.375 46.962341 44.916931 37.721931 56.6875 37.721931 C 68.458069 37.721931 78 46.962341 78 58.360966 Z M 47.96875 63.321838 C 48.236126 66.455215 50.859501 68.894379 55.57925 69.183327 L 55.57925 71.494896 L 57.671749 71.494896 L 57.671749 69.168312 C 62.550373 68.845596 65.40625 66.391426 65.40625 62.8265 C 65.40625 59.580544 63.224625 57.91066 59.322502 57.047569 L 57.671749 56.672318 L 57.671749 50.383038 C 59.764248 50.608192 61.097248 51.685173 61.415001 53.178692 L 65.088501 53.178692 C 64.817245 50.161636 62.069874 47.801285 57.671749 47.542362 L 57.671749 45.227036 L 55.57925 45.227036 L 55.57925 47.587387 C 51.409748 47.973904 48.57325 50.334259 48.57325 53.67403 C 48.57325 56.627285 50.681248 58.507313 54.192001 59.276588 L 55.57925 59.595558 L 55.57925 66.275101 C 53.432499 65.974892 52.014248 64.864136 51.692627 63.321838 L 47.96875 63.321838 Z M 55.563751 56.210754 C 53.502251 55.760448 52.38625 54.844822 52.38625 53.463882 C 52.38625 51.925339 53.591377 50.7658 55.57925 50.42807 L 55.57925 56.207001 L 55.559875 56.207001 Z M 57.973999 60.128418 C 60.473377 60.672539 61.628124 61.554386 61.628124 63.115448 C 61.628124 64.894157 60.194374 66.117493 57.675625 66.342644 L 57.675625 60.060871 L 57.973999 60.128418 Z"/>
    </g>
</svg>
